PathFileType	4	(X/Y/Z)	38_2_77_p0_0-273_filt_butterworth.trc
DataRate	CameraRate	NumFrames	NumMarkers	Units	OrigDataRate	OrigDataStartFrame	OrigNumFrames
39.0	39.0	6	27	m	39.0	204	273
Frame#	Time	RHip			RKnee			RAnkle			RBigToe			RSmallToe			RHeel			LHip			LKnee			LAnkle			LBigToe			LSmallToe			LHeel			Neck			Head			Nose			RShoulder			RElbow			RWrist			RThumb			RIndex			RPinky			LShoulder			LElbow			LWrist			LThumb			LIndex			LPinky			
		X1	Y1	Z1	X2	Y2	Z2	X3	Y3	Z3	X4	Y4	Z4	X5	Y5	Z5	X6	Y6	Z6	X7	Y7	Z7	X8	Y8	Z8	X9	Y9	Z9	X10	Y10	Z10	X11	Y11	Z11	X12	Y12	Z12	X13	Y13	Z13	X14	Y14	Z14	X15	Y15	Z15	X16	Y16	Z16	X17	Y17	Z17	X18	Y18	Z18	X19	Y19	Z19	X20	Y20	Z20	X21	Y21	Z21	X22	Y22	Z22	X23	Y23	Z23	X24	Y24	Z24	X25	Y25	Z25	X26	Y26	Z26	X27	Y27	Z27	
204	5.230769230769231	0.3913061110655137	0.7304696681757173	0.5372422303450782	0.3970329754953353	0.9076695080869353	0.9486347946025044	0.35669699529882554	1.098212717763027	1.3755853529260533	0.3106006145915504	0.862980936237242	1.4231173600662859	0.3789814572531005	0.9047617896565551	1.4377461895142962	0.34589568042044916	1.17176651836515	1.413784851519838	0.16811287068530228	0.7752935942064306	0.5133463983009032	0.1736642698163742	0.9404367821778135	0.9451740736026699	0.18282054203662168	1.0829334039821656	1.3384166307518286	0.16677496428789937	0.8852395349232727	1.4084458289843973	0.11141466484208004	0.9443274064104217	1.4092721557237233	0.20677785194658804	1.1643684457684265	1.415194025086171	0.29403042433530285	0.5606547159235669	-0.09440748576678452	0.2964962496648448	0.48244084484843036	-0.33661589593559804	0.2825670284826459	0.45630969396737964	-0.1914365723172202	0.4695868912060544	0.5962626001535004	0.008489518938280092	0.5490358334009964	0.7473781376977522	0.2789140137689447	0.5302594764192278	0.8138736723464096	0.5604123535943479	0.49729339771341974	0.8453601777374478	0.6748032621157642	0.5034047643416889	0.8469208065796999	0.6943912299599988	0.5111218659543735	0.8620433421557238	0.6771723650775155	0.1275832590135044	0.6547893573554081	-0.011513916868335403	0.05903353472298801	0.7472510167676638	0.25261978437810556	0.03311629676426471	0.7936329757519656	0.519627288989323	0.06142337457860711	0.8063921059634143	0.632055212759523	0.03444262359695608	0.8439629021177186	0.6588138473408918	0.02629723491733147	0.8407146563509796	0.6442293379411903
205	5.256410256410256	0.39369155298062797	0.7284061776109582	0.536207408151929	0.39705727553207604	0.9071924318757316	0.9486322542160892	0.3566896198856111	1.0982916681227628	1.3755691540922772	0.31270993484001935	0.8710135448995177	1.4269412415395446	0.37920747419349543	0.905391922713397	1.437926538369695	0.3457472976298382	1.1798461682063126	1.4172196441679783	0.1709407651116432	0.7843171563159943	0.5148895327503205	0.17366242367999657	0.9406500763212174	0.9454052698916471	0.18272929013313963	1.0830346426759254	1.338476230290794	0.16697468985461328	0.885310545869661	1.4084340964007218	0.11189794629837468	0.9541882572666764	1.4128253455589568	0.20605343105784035	1.1662754005810034	1.4150056871956371	0.2940287484603837	0.560887549388724	-0.08997431702224826	0.29643838337440354	0.48256313258761685	-0.33696643180009633	0.2847853177612615	0.4424692163204413	-0.1867685964016547	0.46957523290704023	0.5961982949656084	0.008447934566958498	0.5527875001988595	0.7741222342391417	0.27639026765549757	0.5382437041444414	0.8372643324401055	0.5511575538857839	0.49706020388154737	0.8484275121737088	0.6669737674397517	0.5032820673355177	0.8492680739625689	0.6796121537650437	0.5138014167735143	0.8731987014647077	0.6648420436904576	0.1279166370710896	0.6563489033338051	-0.009807379267798164	0.06404429917335341	0.7578723231387952	0.254184919809477	0.03553501855854933	0.8112785511062724	0.515642561154839	0.06193733605706617	0.8385391167033915	0.6302627269283674	0.03603514124705168	0.8490515461152779	0.6531180343097913	0.02730182005798247	0.8576036648799834	0.639171268943767
206	5.282051282051282	0.3971565810216637	0.7279499537195726	0.5342596729941744	0.3971338308307752	0.9064687850069458	0.9485433461146854	0.3566791839182314	1.0983578930056248	1.3755813471906817	0.3129600637131795	0.8752372729769838	1.4282431360787782	0.379142363045595	0.9053916489325657	1.4379116737385422	0.34691466552925265	1.1854200675926516	1.4208961011722594	0.1726076944765581	0.7893662589441092	0.5156652686804982	0.17364503373671056	0.9408486526728201	0.945343190789913	0.18262656654018236	1.0831620833962974	1.3372789431824903	0.1669669971286537	0.8852635686886012	1.4083544135601613	0.1120214663843195	0.9533332959207677	1.4132602517510353	0.20595803638022142	1.1666950953057653	1.414990842759592	0.2939447217469624	0.5608550130296368	-0.08884766841101292	0.29634781401112503	0.4821101498115866	-0.33705500373957875	0.28641948318927446	0.4326157775620084	-0.18254929152227206	0.4686992070662744	0.6043066979144296	0.007201800694300612	0.5559990630990446	0.7914893267680061	0.2751782091248153	0.5452320065662829	0.8534510128952817	0.5429737534631386	0.4973134524759927	0.8466334702173217	0.6612686299575652	0.5032220261586765	0.850571024588991	0.6726097883840665	0.5170860184484907	0.8856728513289798	0.6595832312236445	0.12793509958950833	0.6567961327259784	-0.008917613143064333	0.06796737022997541	0.7646419457331783	0.25336988809528105	0.0380979095855655	0.8264550071780025	0.5083979616816159	0.06311170262340293	0.8538713482557752	0.6284230370917073	0.03577534953782753	0.8487088131644288	0.6452099042112003	0.02673499966366513	0.8722876923276839	0.6362563027240122
207	5.307692307692308	0.3970270136748813	0.728492735557376	0.5330495158470676	0.39715978310351	0.9064979624651723	0.9485743373410789	0.3566511601649843	1.098433435613439	1.375605687319588	0.31273172144729594	0.8750707442873252	1.427922768575779	0.3791533851507385	0.9054537835112715	1.4379012178463164	0.3492737077415804	1.186470863372131	1.4224140740176192	0.17279410360452369	0.7891042490439344	0.5161175364941682	0.1735936774520085	0.9408926699584814	0.9453178448636137	0.1825754449360656	1.083387756752383	1.335219346838994	0.16696379844440065	0.8852985932565208	1.4082812805431841	0.11216578119774157	0.9509893847218474	1.4120883772545143	0.20595073407795927	1.1658061634076735	1.4145247070769875	0.2938718312028895	0.560797641118048	-0.09094146330262223	0.2969404498113904	0.4782024399884883	-0.3361294924370397	0.2869451396866424	0.4298650610766267	-0.1800236877592442	0.46816072849208223	0.6092670048491374	0.006324008242489951	0.5586863310969511	0.7915750425317954	0.27364952743759086	0.5477315154727769	0.862243153209697	0.5385177632143137	0.497440216657047	0.8453992533382819	0.6599768785085133	0.5027385314112278	0.8553518238223917	0.6731679658395809	0.5198151087534867	0.9002337293994351	0.6601054871940343	0.12783839725414073	0.6566101800957038	-0.008936216601917131	0.0698431451632922	0.7655094439120722	0.24955818481354838	0.03952931261088442	0.8310294017343651	0.5024623232271398	0.06506843109000093	0.8598448362373294	0.6276812815679365	0.035997213766375366	0.8569730050421918	0.6399036279692221	0.024602232493386736	0.9006453985635069	0.6370341567700092
208	5.333333333333333	0.39393282473389446	0.7255029301155825	0.5329755490022875	0.3971748350725651	0.9067060225047527	0.9486461373227054	0.3566318849155188	1.098504977256629	1.375504063139284	0.31276689904188015	0.8745579546402179	1.4277611116948692	0.37923163114460096	0.9057045346296404	1.4379880497797646	0.3507470529051501	1.18611466216414	1.4224646183625271	0.17271467776946708	0.7880494178904033	0.5170684235904444	0.17355792169050685	0.9408373967171895	0.9453415391819389	0.1825921677846749	1.0835346511616397	1.334035574058282	0.1670155226875295	0.8854121354053279	1.4082200688892013	0.11221399619738938	0.951031597231806	1.411905344150403	0.20586478386232732	1.1653332993331365	1.4142882399016468	0.29411617560900316	0.5611928730572375	-0.09338262879646295	0.2983357499360131	0.4724618552529967	-0.33462944574387404	0.2868699872883623	0.43061935176846255	-0.1792582013291869	0.46815496978774807	0.6091685101232703	0.006202346999464639	0.561705900866116	0.7927509329079442	0.2713910136695628	0.5496787093523162	0.864138212107192	0.5364743902634406	0.49741930173728544	0.8455890292458212	0.6597467450061866	0.5022379284682448	0.858202578245141	0.6741174793695626	0.5211851298134754	0.9095221324581697	0.661109234812667	0.12777063517572937	0.65644748935652	-0.009016324900473794	0.07026717397315388	0.7642862935570756	0.2457470972491213	0.03957714282180804	0.8298155887232656	0.500219534711194	0.06578957750901555	0.8673181040497311	0.6263981341119955	0.03653060795593498	0.8717929755169946	0.6381243306522469	0.020981384342729503	0.9352549584369958	0.6365463623309969
209	5.358974358974359	0.39250630055213287	0.7186404706865424	0.5330546864684083	0.397143099456557	0.9067406053752745	0.9486358132547632	0.3566311531224976	1.0984186622290135	1.3752027011689405	0.3127356705164257	0.87464444488523	1.4278219731655675	0.3792336211937636	0.9056738892766583	1.4380452320096033	0.35074887023608525	1.186133941448927	1.4222813147959685	0.17280078072102198	0.7881164153236603	0.518584236797952	0.17377109970976645	0.9410047662801195	0.9454202929821305	0.1825810813567595	1.0835024946080118	1.333897021507542	0.1670327138609663	0.8853909934504363	1.408198288460042	0.11202071115979688	0.9524137948040117	1.4109531871596022	0.2060983106196157	1.1663940598941116	1.4156889864090285	0.29414310947382627	0.5611366657150404	-0.09405797021421537	0.29917353208784003	0.46910685373162153	-0.33367380052865514	0.2867938055084014	0.43105801383891285	-0.1794070594569594	0.4681837552997399	0.6084049428113343	0.006263364404471914	0.5636517997428596	0.8000566716114808	0.27011095094007503	0.554534805358294	0.8636190571601821	0.5359524492029383	0.4974702178767675	0.8455949684582713	0.658335908079211	0.5026316581352955	0.8576555397218416	0.6731801866478155	0.5215648054478569	0.9127942126513428	0.660494370563401	0.12769039647416833	0.6562982430897867	-0.008786364909761772	0.07117563323145087	0.7648164684107251	0.24312673732587162	0.039243202051039164	0.8285841460875853	0.4979968782784583	0.06521431010355633	0.8723384161008298	0.6228607933106718	0.036696168764673465	0.8799393521326176	0.6368190159062976	0.01912285627567143	0.9486035414252556	0.6314253417185509
